<!-- Generated by IcoMoon.io -->
<svg version="1.1" xmlns="http://www.w3.org/2000/svg" width="153" height="32" viewBox="0 0 153 32">
<path fill="#4d5ae5" d="M7.608 7.675h3.072l1.944 5.64 1.968-5.64h3.048l-2.928 7.752 2.16 5.424 4.824-13.224h3.6l-6.816 17.040h-2.856l-3-7.152-2.976 7.152h-2.856l-6.792-17.040h3.552l4.848 13.224 2.112-5.424-2.904-7.752zM39.594 21.763v2.904h-11.832v-17.040h11.616v2.904h-8.304v4.104h7.176v2.688h-7.176v4.44h8.52zM56.624 20.275c0 0.96-0.248 1.768-0.744 2.424-0.496 0.64-1.168 1.128-2.016 1.464-0.832 0.336-1.744 0.504-2.736 0.504h-8.232v-17.040h9.12c0.8 0 1.488 0.216 2.064 0.648 0.592 0.416 1.040 0.96 1.344 1.632 0.32 0.656 0.48 1.344 0.48 2.064 0 0.816-0.208 1.592-0.624 2.328s-1.024 1.28-1.824 1.632c0.976 0.288 1.744 0.808 2.304 1.56 0.576 0.752 0.864 1.68 0.864 2.784zM53.288 19.651c0-0.432-0.088-0.816-0.264-1.152-0.176-0.352-0.416-0.624-0.72-0.816-0.288-0.208-0.624-0.312-1.008-0.312h-5.088v4.488h4.92c0.4 0 0.76-0.096 1.080-0.288 0.336-0.208 0.6-0.48 0.792-0.816s0.288-0.704 0.288-1.104zM46.208 10.459v4.296h4.416c0.368 0 0.704-0.088 1.008-0.264s0.544-0.424 0.72-0.744c0.192-0.32 0.288-0.704 0.288-1.152 0-0.432-0.088-0.808-0.264-1.128-0.16-0.32-0.384-0.568-0.672-0.744-0.272-0.176-0.584-0.264-0.936-0.264h-4.56z"></path>
<path fill="#f4f4fd" d="M70.595 12.091c-0.112-0.112-0.32-0.264-0.624-0.456-0.288-0.192-0.648-0.376-1.080-0.552-0.416-0.176-0.872-0.328-1.368-0.456-0.496-0.144-1-0.216-1.512-0.216-0.896 0-1.576 0.168-2.040 0.504-0.448 0.336-0.672 0.808-0.672 1.416 0 0.464 0.144 0.832 0.432 1.104s0.72 0.504 1.296 0.696c0.576 0.192 1.296 0.4 2.16 0.624 1.12 0.272 2.088 0.608 2.904 1.008 0.832 0.384 1.464 0.896 1.896 1.536 0.448 0.624 0.672 1.456 0.672 2.496 0 0.912-0.168 1.696-0.504 2.352-0.336 0.64-0.8 1.16-1.392 1.56s-1.264 0.696-2.016 0.888c-0.752 0.176-1.552 0.264-2.4 0.264s-1.696-0.088-2.544-0.264c-0.848-0.176-1.664-0.424-2.448-0.744-0.784-0.336-1.504-0.736-2.16-1.2l1.464-2.856c0.144 0.144 0.4 0.336 0.768 0.576 0.368 0.224 0.816 0.456 1.344 0.696 0.528 0.224 1.104 0.416 1.728 0.576s1.256 0.24 1.896 0.24c0.896 0 1.576-0.152 2.040-0.456s0.696-0.736 0.696-1.296c0-0.512-0.184-0.912-0.552-1.2s-0.88-0.536-1.536-0.744c-0.656-0.224-1.432-0.464-2.328-0.72-1.072-0.304-1.968-0.64-2.688-1.008-0.72-0.384-1.256-0.864-1.608-1.44s-0.528-1.296-0.528-2.16c0-1.168 0.272-2.144 0.816-2.928 0.56-0.8 1.312-1.4 2.256-1.8 0.944-0.416 1.992-0.624 3.144-0.624 0.8 0 1.552 0.088 2.256 0.264 0.72 0.176 1.392 0.408 2.016 0.696s1.184 0.6 1.68 0.936l-1.464 2.688zM88.625 10.531h-5.448v14.136h-3.288v-14.136h-5.448v-2.904h14.184v2.904zM98.685 24.787c-1.36 0-2.52-0.224-3.48-0.672-0.944-0.464-1.712-1.096-2.304-1.896-0.576-0.8-1-1.704-1.272-2.712-0.272-1.024-0.408-2.088-0.408-3.192v-8.688h3.312v8.688c0 0.704 0.064 1.392 0.192 2.064 0.144 0.656 0.376 1.248 0.696 1.776s0.744 0.944 1.272 1.248c0.528 0.304 1.184 0.456 1.968 0.456 0.8 0 1.464-0.152 1.992-0.456 0.544-0.32 0.968-0.744 1.272-1.272 0.32-0.528 0.552-1.12 0.696-1.776 0.144-0.672 0.216-1.352 0.216-2.040v-8.688h3.288v8.688c0 1.168-0.144 2.264-0.432 3.288-0.272 1.024-0.712 1.928-1.32 2.712-0.592 0.768-1.36 1.376-2.304 1.824-0.944 0.432-2.072 0.648-3.384 0.648zM110.181 24.667v-17.040h6.192c1.856 0 3.408 0.384 4.656 1.152 1.248 0.752 2.184 1.776 2.808 3.072 0.624 1.28 0.936 2.704 0.936 4.272 0 1.728-0.344 3.232-1.032 4.512s-1.664 2.272-2.928 2.976c-1.248 0.704-2.728 1.056-4.44 1.056h-6.192zM121.437 16.123c0-1.104-0.2-2.072-0.6-2.904-0.4-0.848-0.976-1.504-1.728-1.968-0.752-0.48-1.664-0.72-2.736-0.72h-2.88v11.232h2.88c1.088 0 2.008-0.24 2.76-0.72 0.752-0.496 1.32-1.168 1.704-2.016 0.4-0.864 0.6-1.832 0.6-2.904zM128.081 24.667v-17.040h3.312v17.040h-3.312zM142.94 24.787c-1.248 0-2.384-0.24-3.408-0.72-1.008-0.48-1.88-1.128-2.616-1.944-0.72-0.832-1.28-1.76-1.68-2.784-0.4-1.040-0.6-2.104-0.6-3.192 0-1.136 0.208-2.216 0.624-3.24 0.432-1.040 1.016-1.96 1.752-2.76 0.752-0.816 1.632-1.456 2.64-1.92 1.024-0.48 2.144-0.72 3.36-0.72 1.232 0 2.352 0.248 3.36 0.744 1.024 0.496 1.896 1.16 2.616 1.992s1.28 1.76 1.68 2.784c0.4 1.024 0.6 2.080 0.6 3.168 0 1.12-0.208 2.2-0.624 3.24-0.416 1.024-1 1.944-1.752 2.76-0.736 0.8-1.616 1.432-2.64 1.896-1.008 0.464-2.112 0.696-3.312 0.696zM137.996 16.147c0 0.736 0.112 1.448 0.336 2.136s0.544 1.304 0.96 1.848c0.432 0.528 0.952 0.952 1.56 1.272 0.624 0.304 1.328 0.456 2.112 0.456 0.8 0 1.512-0.16 2.136-0.48 0.624-0.336 1.144-0.776 1.56-1.32 0.416-0.56 0.728-1.176 0.936-1.848 0.224-0.688 0.336-1.376 0.336-2.064 0-0.736-0.12-1.44-0.36-2.112-0.224-0.688-0.552-1.296-0.984-1.824-0.416-0.544-0.936-0.968-1.56-1.272-0.608-0.32-1.296-0.48-2.064-0.48-0.816 0-1.536 0.168-2.16 0.504-0.608 0.32-1.12 0.752-1.536 1.296s-0.736 1.152-0.96 1.824c-0.208 0.672-0.312 1.36-0.312 2.064z"></path>
</svg>
